<svg xmlns="http://www.w3.org/2000/svg" viewBox="0 0 1000 600">
  <!-- 背景 -->
  <rect width="1000" height="600" fill="#f8f9fa" />
  
  <!-- 节点A -->
  <rect x="50" y="50" width="400" height="200" rx="10" fill="#e6f2ff" stroke="#0066cc" stroke-width="2" />
  <text x="250" y="75" font-family="Arial" font-size="16" text-anchor="middle" font-weight="bold">节点 A</text>
  
  <!-- 节点B -->
  <rect x="550" y="50" width="400" height="200" rx="10" fill="#e6f2ff" stroke="#0066cc" stroke-width="2" />
  <text x="750" y="75" font-family="Arial" font-size="16" text-anchor="middle" font-weight="bold">节点 B</text>
  
  <!-- 节点C (Waypoint节点) -->
  <rect x="300" y="300" width="400" height="200" rx="10" fill="#fff2e6" stroke="#ff6600" stroke-width="2" />
  <text x="500" y="325" font-family="Arial" font-size="16" text-anchor="middle" font-weight="bold">节点 C (Waypoint节点)</text>
  
  <!-- 控制平面 -->
  <rect x="50" y="530" width="900" height="50" rx="10" fill="#e6ffe6" stroke="#006600" stroke-width="2" />
  <text x="500" y="560" font-family="Arial" font-size="16" text-anchor="middle" font-weight="bold">Istio控制平面 (Istiod)</text>
  
  <!-- 服务A (调用方) -->
  <rect x="100" y="100" width="120" height="60" rx="5" fill="#ffffff" stroke="#333333" stroke-width="2" />
  <text x="160" y="135" font-family="Arial" font-size="14" text-anchor="middle">服务 A</text>
  
  <!-- 服务B (被调用方) -->
  <rect x="780" y="100" width="120" height="60" rx="5" fill="#ffffff" stroke="#333333" stroke-width="2" />
  <text x="840" y="135" font-family="Arial" font-size="14" text-anchor="middle">服务 B</text>
  
  <!-- ztunnel A -->
  <rect x="280" y="160" width="120" height="60" rx="5" fill="#d1e7ff" stroke="#0066cc" stroke-width="2" />
  <text x="340" y="195" font-family="Arial" font-size="14" text-anchor="middle" font-weight="bold">ztunnel</text>
  
  <!-- ztunnel B -->
  <rect x="600" y="160" width="120" height="60" rx="5" fill="#d1e7ff" stroke="#0066cc" stroke-width="2" />
  <text x="660" y="195" font-family="Arial" font-size="14" text-anchor="middle" font-weight="bold">ztunnel</text>
  
  <!-- Waypoint代理 -->
  <rect x="440" y="370" width="120" height="60" rx="5" fill="#ffe0cc" stroke="#ff6600" stroke-width="2" />
  <text x="500" y="405" font-family="Arial" font-size="14" text-anchor="middle" font-weight="bold">Waypoint代理</text>
  
  <!-- L4直接路径 -->
  <path d="M 220 130 C 240 130, 260 110, 280 130" fill="none" stroke="#0066cc" stroke-width="3" stroke-dasharray="none" />
  <path d="M 400 130 C 480 50, 520 50, 600 130" fill="none" stroke="#0066cc" stroke-width="3" stroke-dasharray="5,5" />
  <path d="M 720 130 C 740 130, 760 110, 780 130" fill="none" stroke="#0066cc" stroke-width="3" stroke-dasharray="none" />
  
  <!-- L7 Waypoint路径 -->
  <path d="M 220 130 C 240 130, 260 110, 280 130" fill="none" stroke="#ff6600" stroke-width="3" stroke-dasharray="none" />
  <path d="M 340 220 C 340 280, 440 280, 440 370" fill="none" stroke="#ff6600" stroke-width="3" stroke-dasharray="none" />
  <path d="M 560 370 C 560 280, 660 280, 660 220" fill="none" stroke="#ff6600" stroke-width="3" stroke-dasharray="none" />
  <path d="M 720 130 C 740 130, 760 110, 780 130" fill="none" stroke="#ff6600" stroke-width="3" stroke-dasharray="none" />
  
  <!-- 控制平面连接 -->
  <path d="M 340 220 L 340 530" fill="none" stroke="#006600" stroke-width="1" stroke-dasharray="5,5" />
  <path d="M 660 220 L 660 530" fill="none" stroke="#006600" stroke-width="1" stroke-dasharray="5,5" />
  <path d="M 500 430 L 500 530" fill="none" stroke="#006600" stroke-width="1" stroke-dasharray="5,5" />
  
  <!-- 图例 -->
  <rect x="700" y="520" width="20" height="10" fill="none" stroke="#0066cc" stroke-width="3" />
  <text x="725" y="530" font-family="Arial" font-size="12" text-anchor="start">L4流量路径</text>
  
  <rect x="800" y="520" width="20" height="10" fill="none" stroke="#ff6600" stroke-width="3" />
  <text x="825" y="530" font-family="Arial" font-size="12" text-anchor="start">L7流量路径</text>
  
  <rect x="50" y="10" width="900" height="30" fill="none" />
  <text x="500" y="30" font-family="Arial" font-size="18" text-anchor="middle" font-weight="bold">Istio Ambient模式流量路径</text>
  
  <!-- 流程标注 -->
  <circle cx="200" cy="110" r="12" fill="#ffffff" stroke="#333333" stroke-width="2" />
  <text x="200" y="115" font-family="Arial" font-size="12" text-anchor="middle" font-weight="bold">1</text>
  
  <circle cx="320" cy="140" r="12" fill="#ffffff" stroke="#333333" stroke-width="2" />
  <text x="320" y="145" font-family="Arial" font-size="12" text-anchor="middle" font-weight="bold">2</text>
  
  <circle cx="480" cy="80" r="12" fill="#ffffff" stroke="#0066cc" stroke-width="2" />
  <text x="480" y="85" font-family="Arial" font-size="12" text-anchor="middle" font-weight="bold">3a</text>
  
  <circle cx="400" cy="320" r="12" fill="#ffffff" stroke="#ff6600" stroke-width="2" />
  <text x="400" y="325" font-family="Arial" font-size="12" text-anchor="middle" font-weight="bold">3b</text>
  
  <circle cx="500" cy="350" r="12" fill="#ffffff" stroke="#ff6600" stroke-width="2" />
  <text x="500" y="355" font-family="Arial" font-size="12" text-anchor="middle" font-weight="bold">4</text>
  
  <circle cx="600" cy="320" r="12" fill="#ffffff" stroke="#ff6600" stroke-width="2" />
  <text x="600" y="325" font-family="Arial" font-size="12" text-anchor="middle" font-weight="bold">5</text>
  
  <circle cx="680" cy="140" r="12" fill="#ffffff" stroke="#333333" stroke-width="2" />
  <text x="680" y="145" font-family="Arial" font-size="12" text-anchor="middle" font-weight="bold">6</text>
  
  <circle cx="760" cy="110" r="12" fill="#ffffff" stroke="#333333" stroke-width="2" />
  <text x="760" y="115" font-family="Arial" font-size="12" text-anchor="middle" font-weight="bold">7</text>
  
  <!-- 说明文本 -->
  <text x="50" y="270" font-family="Arial" font-size="14">1. 服务A发起请求</text>
  <text x="50" y="290" font-family="Arial" font-size="14">2. 本地ztunnel拦截流量并处理L4安全</text>
  <text x="50" y="310" font-family="Arial" font-size="14">3a. L4模式: ztunnel直接将流量转发到目标节点ztunnel</text>
  <text x="50" y="330" font-family="Arial" font-size="14">3b. L7模式: 流量被路由到Waypoint代理</text>
  <text x="50" y="350" font-family="Arial" font-size="14">4. Waypoint代理执行高级L7处理(路由、限流等)</text>
  <text x="50" y="370" font-family="Arial" font-size="14">5. Waypoint代理转发到目标节点ztunnel</text>
  <text x="50" y="390" font-family="Arial" font-size="14">6. 目标节点ztunnel处理L4安全</text>
  <text x="50" y="410" font-family="Arial" font-size="14">7. 请求传递给目标服务B</text>
</svg>
