<svg xmlns="http://www.w3.org/2000/svg" viewBox="0 0 1000 600">
  <!-- 背景 -->
  <rect width="1000" height="600" fill="#f8f9fa" />
  
  <!-- 上方区域：Nacos注册中心 -->
  <rect x="350" y="20" width="300" height="100" rx="10" fill="#e6f9ff" stroke="#00a0c6" stroke-width="2" />
  <text x="500" y="60" font-family="Arial" font-size="18" text-anchor="middle" font-weight="bold">Nacos注册中心</text>
  <text x="500" y="85" font-family="Arial" font-size="14" text-anchor="middle">服务注册库 + 配置中心</text>
  
  <!-- 左侧区域：Java应用 -->
  <rect x="50" y="180" width="250" height="320" rx="10" fill="#f5f0ff" stroke="#6c3483" stroke-width="2" />
  <text x="175" y="205" font-family="Arial" font-size="16" text-anchor="middle" font-weight="bold">Pod A：Java应用</text>
  
  <!-- 右侧区域：Python应用 -->
  <rect x="700" y="180" width="250" height="320" rx="10" fill="#ebf5e8" stroke="#27ae60" stroke-width="2" />
  <text x="825" y="205" font-family="Arial" font-size="16" text-anchor="middle" font-weight="bold">Pod B：Python应用</text>
  
  <!-- Istio控制平面 -->
  <rect x="375" y="400" width="250" height="100" rx="10" fill="#e6ffe6" stroke="#006600" stroke-width="2" />
  <text x="500" y="440" font-family="Arial" font-size="16" text-anchor="middle" font-weight="bold">Istio控制平面</text>
  <text x="500" y="465" font-family="Arial" font-size="14" text-anchor="middle">istiod</text>
  
  <!-- Java服务实例 -->
  <rect x="80" y="230" width="150" height="70" rx="5" fill="#ffffff" stroke="#6c3483" stroke-width="2" />
  <text x="155" y="255" font-family="Arial" font-size="14" text-anchor="middle">Java服务</text>
  <text x="155" y="275" font-family="Arial" font-size="12" text-anchor="middle">Nacos Client</text>
  <text x="155" y="290" font-family="Arial" font-size="12" text-anchor="middle">元数据: {env: prod}</text>
  
  <!-- Python服务实例 - 已移除Nacos Client -->
  <rect x="770" y="230" width="150" height="70" rx="5" fill="#ffffff" stroke="#27ae60" stroke-width="2" />
  <text x="845" y="255" font-family="Arial" font-size="14" text-anchor="middle">Python服务</text>
  <text x="845" y="275" font-family="Arial" font-size="12" text-anchor="middle">无Nacos客户端</text>
  <text x="845" y="290" font-family="Arial" font-size="12" text-anchor="middle">元数据: {env: test}</text>
  
  <!-- Java Envoy Sidecar -->
  <rect x="80" y="360" width="150" height="60" rx="5" fill="#eaeaea" stroke="#0066cc" stroke-width="2" />
  <text x="155" y="395" font-family="Arial" font-size="14" text-anchor="middle" font-weight="bold">Envoy Sidecar</text>
  
  <!-- Python Envoy Sidecar -->
  <rect x="770" y="360" width="150" height="60" rx="5" fill="#eaeaea" stroke="#0066cc" stroke-width="2" />
  <text x="845" y="395" font-family="Arial" font-size="14" text-anchor="middle" font-weight="bold">Envoy Sidecar</text>
  
  <!-- Nacos注册流程 - 只保留Java的注册 -->
  <path d="M 155 230 L 155 150 L 350 110" fill="none" stroke="#6c3483" stroke-width="2" stroke-dasharray="6,3" />
  <text x="160" y="180" font-family="Arial" font-size="12" text-anchor="start" fill="#6c3483">1a. 注册服务</text>
  
  <!-- Python服务通过Istio被发现 -->
  <path d="M 845 300 L 845 340 L 625 400" fill="none" stroke="#27ae60" stroke-width="2" stroke-dasharray="6,3" />
  <text x="750" y="350" font-family="Arial" font-size="12" text-anchor="start" fill="#27ae60">1b. Istio自动发现</text>
  
  <!-- Istio服务发现关系 -->
  <path d="M 500 400 L 155 390" fill="none" stroke="#006600" stroke-width="2" stroke-dasharray="6,3" />
  <text x="320" y="380" font-family="Arial" font-size="12" text-anchor="middle" fill="#006600">2a. 服务发现配置</text>
  
  <path d="M 500 400 L 845 390" fill="none" stroke="#006600" stroke-width="2" stroke-dasharray="6,3" />
  <text x="680" y="380" font-family="Arial" font-size="12" text-anchor="middle" fill="#006600">2b. 服务发现配置</text>
  
  <!-- Nacos与Istio控制平面集成 - 更新为XDS双向同步 -->
  <path d="M 500 120 L 500 400" fill="none" stroke="#00a0c6" stroke-width="4" stroke-dasharray="3,3" marker-end="url(#arrowhead)" marker-start="url(#arrowhead)" />
  <text x="510" y="260" font-family="Arial" font-size="12" text-anchor="start" fill="#00a0c6" font-weight="bold">3. XDS双向同步</text>

  <!-- 定义箭头标记 -->
  <defs>
    <marker id="arrowhead" markerWidth="10" markerHeight="7" refX="0" refY="3.5" orient="auto">
      <polygon points="0 0, 10 3.5, 0 7" fill="#00a0c6" />
    </marker>
  </defs>
  
  <!-- 服务调用流程：Java本地查询方式 -->
  <path d="M 155 300 C 200 325, 300 330, 350 120" fill="none" stroke="#6c3483" stroke-width="2" />
  <text x="210" y="330" font-family="Arial" font-size="12" text-anchor="start" fill="#6c3483">4a. Java通过Nacos查询</text>
  
  <!-- Python服务通过Istio查询 -->
  <path d="M 845 300 C 800 325, 700 330, 625 400" fill="none" stroke="#27ae60" stroke-width="2" />
  <text x="700" y="330" font-family="Arial" font-size="12" text-anchor="end" fill="#27ae60">4b. Python通过Istio查询</text>
  
  <!-- 服务调用：Java直接调用方式 -->
  <path d="M 230 265 L 500 120" fill="none" stroke="#6c3483" stroke-width="2" stroke-dasharray="12,4" />
  <text x="300" y="220" font-family="Arial" font-size="12" text-anchor="start" fill="#6c3483">5a. Java直接调用API</text>
  
  <!-- 流量拦截：Java -->
  <path d="M 155 300 L 155 360" fill="none" stroke="#0066cc" stroke-width="3" />
  <text x="100" y="340" font-family="Arial" font-size="12" text-anchor="start" fill="#0066cc">6a. 流量拦截</text>
  
  <!-- 流量拦截：Python -->
  <path d="M 845 300 L 845 360" fill="none" stroke="#0066cc" stroke-width="3" />
  <text x="860" y="340" font-family="Arial" font-size="12" text-anchor="start" fill="#0066cc">6b. 流量拦截</text>
  
  <!-- Sidecar间通信 -->
  <path d="M 155 420 C 300 440, 700 440, 845 420" fill="none" stroke="#0066cc" stroke-width="3" />
  <text x="500" y="460" font-family="Arial" font-size="12" text-anchor="middle" fill="#0066cc">7. Sidecar间通信</text>
  
  <!-- 图例 -->
  <rect x="80" y="520" width="20" height="10" fill="none" stroke="#6c3483" stroke-width="2" stroke-dasharray="6,3" />
  <text x="105" y="530" font-family="Arial" font-size="12" text-anchor="start">Java服务注册</text>
  
  <rect x="200" y="520" width="20" height="10" fill="none" stroke="#27ae60" stroke-width="2" stroke-dasharray="6,3" />
  <text x="225" y="530" font-family="Arial" font-size="12" text-anchor="start">Python服务发现</text>
  
  <rect x="350" y="520" width="20" height="10" fill="none" stroke="#00a0c6" stroke-width="4" stroke-dasharray="3,3" />
  <text x="375" y="530" font-family="Arial" font-size="12" text-anchor="start">XDS双向同步</text>
  
  <rect x="500" y="520" width="20" height="10" fill="none" stroke="#6c3483" stroke-width="2" />
  <text x="525" y="530" font-family="Arial" font-size="12" text-anchor="start">Java服务查询/调用</text>
  
  <rect x="650" y="520" width="20" height="10" fill="none" stroke="#27ae60" stroke-width="2" />
  <text x="675" y="530" font-family="Arial" font-size="12" text-anchor="start">Python服务查询</text>
  
  <rect x="800" y="520" width="20" height="10" fill="none" stroke="#0066cc" stroke-width="3" />
  <text x="825" y="530" font-family="Arial" font-size="12" text-anchor="start">Sidecar流量路径</text>
  
  <!-- Sidecar注入箭头 -->
  <path d="M 130 150 L 90 180" fill="none" stroke="#d35400" stroke-width="2" stroke-dasharray="4,2" />
  <text x="60" y="170" font-family="Arial" font-size="12" text-anchor="start" fill="#d35400">6a. Sidecar注入</text>
  
  <path d="M 870 150 L 910 180" fill="none" stroke="#d35400" stroke-width="2" stroke-dasharray="4,2" />
  <text x="885" y="170" font-family="Arial" font-size="12" text-anchor="start" fill="#d35400">6b. Sidecar注入</text>
  
  <!-- 标题 -->
  <rect x="50" y="550" width="900" height="30" fill="none" />
  <text x="500" y="570" font-family="Arial" font-size="18" text-anchor="middle" font-weight="bold">Nacos与Istio Sidecar混合集成架构</text>
  
  <!-- 中央说明区域 -->
  <rect x="375" y="180" width="250" height="180" rx="10" fill="#f0f0f0" stroke="#666666" stroke-width="1" stroke-dasharray="5,3" />
  <text x="500" y="205" font-family="Arial" font-size="14" text-anchor="middle" font-weight="bold">混合服务发现架构</text>
  <text x="500" y="230" font-family="Arial" font-size="12" text-anchor="middle">1. Java应用通过Nacos SDK注册</text>
  <text x="500" y="250" font-family="Arial" font-size="12" text-anchor="middle">2. Python应用通过Istio被发现</text>
  <text x="500" y="270" font-family="Arial" font-size="12" text-anchor="middle">3. Nacos与Istio通过XDS同步</text>
  <text x="500" y="290" font-family="Arial" font-size="12" text-anchor="middle">4. Java应用调用时使用Nacos Client</text>
  <text x="500" y="310" font-family="Arial" font-size="12" text-anchor="middle">5. Python应用调用时使用Istio</text>
  <text x="500" y="330" font-family="Arial" font-size="12" text-anchor="middle">6. 所有流量都经过Sidecar处理</text>
  <text x="500" y="350" font-family="Arial" font-size="12" text-anchor="middle">7. 通过iptables拦截流量</text>
</svg>
