<svg xmlns="http://www.w3.org/2000/svg" viewBox="0 0 1000 600">
  <!-- 背景 -->
  <rect width="1000" height="600" fill="#f8f9fa" />
  
  <!-- 上方区域：Nacos注册中心 -->
  <rect x="350" y="20" width="300" height="100" rx="10" fill="#e6f9ff" stroke="#00a0c6" stroke-width="2" />
  <text x="500" y="60" font-family="Arial" font-size="18" text-anchor="middle" font-weight="bold">Nacos注册中心</text>
  <text x="500" y="85" font-family="Arial" font-size="14" text-anchor="middle">服务注册库 + 配置中心</text>
  
  <!-- 左侧区域：Java应用 -->
  <rect x="50" y="180" width="250" height="320" rx="10" fill="#f5f0ff" stroke="#6c3483" stroke-width="2" />
  <text x="175" y="205" font-family="Arial" font-size="16" text-anchor="middle" font-weight="bold">节点A：Java应用</text>
  
  <!-- 右侧区域：Python应用 -->
  <rect x="700" y="180" width="250" height="320" rx="10" fill="#ebf5e8" stroke="#27ae60" stroke-width="2" />
  <text x="825" y="205" font-family="Arial" font-size="16" text-anchor="middle" font-weight="bold">节点B：Python应用</text>
  
  <!-- 中间区域：Waypoint节点 -->
  <rect x="375" y="180" width="250" height="180" rx="10" fill="#fff2e6" stroke="#ff6600" stroke-width="2" />
  <text x="500" y="205" font-family="Arial" font-size="16" text-anchor="middle" font-weight="bold">节点C：Waypoint代理</text>

  <!-- Istio控制平面 -->
  <rect x="375" y="400" width="250" height="100" rx="10" fill="#e6ffe6" stroke="#006600" stroke-width="2" />
  <text x="500" y="440" font-family="Arial" font-size="16" text-anchor="middle" font-weight="bold">Istio控制平面</text>
  <text x="500" y="465" font-family="Arial" font-size="14" text-anchor="middle">istiod</text>
  
  <!-- Java服务实例 -->
  <rect x="80" y="230" width="150" height="70" rx="5" fill="#ffffff" stroke="#6c3483" stroke-width="2" />
  <text x="155" y="255" font-family="Arial" font-size="14" text-anchor="middle">Java服务</text>
  <text x="155" y="275" font-family="Arial" font-size="12" text-anchor="middle">Nacos Client</text>
  <text x="155" y="290" font-family="Arial" font-size="12" text-anchor="middle">元数据: {env: prod}</text>
  
  <!-- Python服务实例 -->
  <rect x="770" y="230" width="150" height="70" rx="5" fill="#ffffff" stroke="#27ae60" stroke-width="2" />
  <text x="845" y="255" font-family="Arial" font-size="14" text-anchor="middle">Python服务</text>
  <text x="845" y="275" font-family="Arial" font-size="12" text-anchor="middle">Nacos Client Lib</text>
  <text x="845" y="290" font-family="Arial" font-size="12" text-anchor="middle">元数据: {env: test}</text>
  
  <!-- Java ztunnel -->
  <rect x="80" y="360" width="150" height="60" rx="5" fill="#d1e7ff" stroke="#0066cc" stroke-width="2" />
  <text x="155" y="395" font-family="Arial" font-size="14" text-anchor="middle" font-weight="bold">ztunnel</text>
  
  <!-- Python ztunnel -->
  <rect x="770" y="360" width="150" height="60" rx="5" fill="#d1e7ff" stroke="#0066cc" stroke-width="2" />
  <text x="845" y="395" font-family="Arial" font-size="14" text-anchor="middle" font-weight="bold">ztunnel</text>
  
  <!-- Waypoint代理 -->
  <rect x="425" y="260" width="150" height="60" rx="5" fill="#ffe0cc" stroke="#ff6600" stroke-width="2" />
  <text x="500" y="295" font-family="Arial" font-size="14" text-anchor="middle" font-weight="bold">Waypoint代理</text>

  <!-- Nacos注册流程 -->
  <path d="M 155 230 L 155 150 L 350 110" fill="none" stroke="#6c3483" stroke-width="2" stroke-dasharray="6,3" />
  <text x="160" y="180" font-family="Arial" font-size="12" text-anchor="start" fill="#6c3483">1a. 注册服务</text>
  <path d="M 845 230 L 845 150 L 650 110" fill="none" stroke="#27ae60" stroke-width="2" stroke-dasharray="6,3" />
  <text x="850" y="180" font-family="Arial" font-size="12" text-anchor="start" fill="#27ae60">1b. 注册服务</text>
  
  <!-- Istio服务发现关系 -->
  <path d="M 500 400 L 155 390" fill="none" stroke="#006600" stroke-width="2" stroke-dasharray="6,3" />
  <text x="320" y="380" font-family="Arial" font-size="12" text-anchor="middle" fill="#006600">2a. 服务发现信息</text>
  
  <path d="M 500 400 L 845 390" fill="none" stroke="#006600" stroke-width="2" stroke-dasharray="6,3" />
  <text x="680" y="380" font-family="Arial" font-size="12" text-anchor="middle" fill="#006600">2b. 服务发现信息</text>
  
  <path d="M 500 400 L 500 320" fill="none" stroke="#006600" stroke-width="2" stroke-dasharray="6,3" />
  <text x="515" y="360" font-family="Arial" font-size="12" text-anchor="start" fill="#006600">2c. 路由规则</text>
  
  <!-- Nacos与Istio控制平面集成 -->
  <path d="M 500 120 L 500 400" fill="none" stroke="#00a0c6" stroke-width="2" stroke-dasharray="10,5" />
  <text x="510" y="260" font-family="Arial" font-size="12" text-anchor="start" fill="#00a0c6">3. MCP/API集成</text>

  <!-- 服务调用流程：本地查询方式 -->
  <path d="M 155 300 C 200 325, 300 330, 350 120" fill="none" stroke="#6c3483" stroke-width="2" />
  <text x="210" y="330" font-family="Arial" font-size="12" text-anchor="start" fill="#6c3483">4a. 本地查询注册表</text>
  
  <!-- 服务调用：直接调用方式 -->
  <path d="M 230 265 L 500 120" fill="none" stroke="#6c3483" stroke-width="2" stroke-dasharray="12,4" />
  <text x="300" y="220" font-family="Arial" font-size="12" text-anchor="start" fill="#6c3483">4b. 直接调用API</text>
  
  <!-- 实际流量路径：L4直接路径 -->
  <path d="M 230 265 C 300 300, 310 420, 155 390" fill="none" stroke="#0066cc" stroke-width="3" />
  <text x="240" y="340" font-family="Arial" font-size="12" text-anchor="start" fill="#0066cc">5a. 应用发起请求</text>
  
  <path d="M 155 420 C 300 440, 700 440, 845 420" fill="none" stroke="#0066cc" stroke-width="3" stroke-dasharray="5,5" />
  <text x="450" y="460" font-family="Arial" font-size="12" text-anchor="middle" fill="#0066cc">5b. L4直接路径</text>
  
  <path d="M 845 360 C 690 330, 680 290, 770 265" fill="none" stroke="#0066cc" stroke-width="3" />
  <text x="710" y="330" font-family="Arial" font-size="12" text-anchor="middle" fill="#0066cc">5c. 交付目标</text>
  
  <!-- 实际流量路径：L7 Waypoint路径 -->
  <path d="M 155 420 C 250 430, 280 400, 425 295" fill="none" stroke="#ff6600" stroke-width="3" stroke-dasharray="none" />
  <text x="270" y="390" font-family="Arial" font-size="12" text-anchor="middle" fill="#ff6600">6a. L7路径</text>
  
  <path d="M 575 295 C 650 400, 750 430, 845 420" fill="none" stroke="#ff6600" stroke-width="3" stroke-dasharray="none" />
  <text x="690" y="370" font-family="Arial" font-size="12" text-anchor="middle" fill="#ff6600">6b. 转发到目标</text>
  
  <!-- 图例 -->
  <rect x="80" y="520" width="20" height="10" fill="none" stroke="#6c3483" stroke-width="2" stroke-dasharray="6,3" />
  <text x="105" y="530" font-family="Arial" font-size="12" text-anchor="start">服务注册</text>
  
  <rect x="200" y="520" width="20" height="10" fill="none" stroke="#006600" stroke-width="2" stroke-dasharray="6,3" />
  <text x="225" y="530" font-family="Arial" font-size="12" text-anchor="start">Istio服务发现</text>
  
  <rect x="350" y="520" width="20" height="10" fill="none" stroke="#00a0c6" stroke-width="2" stroke-dasharray="10,5" />
  <text x="375" y="530" font-family="Arial" font-size="12" text-anchor="start">Nacos-Istio集成</text>
  
  <rect x="500" y="520" width="20" height="10" fill="none" stroke="#6c3483" stroke-width="2" />
  <text x="525" y="530" font-family="Arial" font-size="12" text-anchor="start">服务查询/调用</text>
  
  <rect x="650" y="520" width="20" height="10" fill="none" stroke="#0066cc" stroke-width="3" />
  <text x="675" y="530" font-family="Arial" font-size="12" text-anchor="start">L4流量路径</text>
  
  <rect x="800" y="520" width="20" height="10" fill="none" stroke="#ff6600" stroke-width="3" />
  <text x="825" y="530" font-family="Arial" font-size="12" text-anchor="start">L7流量路径</text>
  
  <!-- 标题 -->
  <rect x="50" y="550" width="900" height="30" fill="none" />
  <text x="500" y="570" font-family="Arial" font-size="18" text-anchor="middle" font-weight="bold">Nacos与Istio Ambient模式整合架构</text>
</svg>
