<svg xmlns="http://www.w3.org/2000/svg" viewBox="0 0 900 600">
  <!-- Background -->
  <rect width="900" height="600" fill="#ffffff"/>
  
  <!-- Title -->
  <text x="450" y="40" font-family="Arial" font-size="24" text-anchor="middle" font-weight="bold" fill="#0055cc">Istio 与 Nacos 过渡阶段架构</text>
  
  <!-- Control Plane Box -->
  <rect x="320" y="70" width="260" height="150" rx="5" ry="5" fill="#f5f5f5" stroke="#000000" stroke-width="2"/>
  <text x="450" y="90" font-family="Arial" font-size="16" text-anchor="middle" font-weight="bold">控制平面</text>
  
  <!-- Istiod -->
  <rect x="340" y="110" width="100" height="60" rx="5" ry="5" fill="#ddeeff" stroke="#0066cc" stroke-width="2"/>
  <text x="390" y="145" font-family="Arial" font-size="14" text-anchor="middle">注册代理</text>
  <text x="390" y="165" font-family="Arial" font-size="14" text-anchor="middle">Istio istiod</text>
  
  <!-- Nacos -->
  <rect x="460" y="110" width="100" height="60" rx="5" ry="5" fill="#eeffee" stroke="#009900" stroke-width="2"/>
  <text x="510" y="145" font-family="Arial" font-size="14" text-anchor="middle">注册中心</text>
  <text x="510" y="165" font-family="Arial" font-size="14" text-anchor="middle">Nacos</text>
  
  <!-- Sync Component -->
  <rect x="350" y="190" width="200" height="20" rx="5" ry="5" fill="#ffe0cc" stroke="#ff6600" stroke-width="1"/>
  <text x="450" y="205" font-family="Arial" font-size="12" text-anchor="middle">配置双向同步 / 服务转换</text>
  
  <!-- Java Container Box -->
  <rect x="100" y="250" width="200" height="200" rx="5" ry="5" fill="#eeeeff" stroke="#000000" stroke-width="2"/>
  <text x="200" y="270" font-family="Arial" font-size="16" text-anchor="middle" font-weight="bold">Container 1 (Java)</text>
  
  <!-- Java Service -->
  <rect x="120" y="290" width="160" height="60" rx="5" ry="5" fill="#ccddff" stroke="#0066cc" stroke-width="2"/>
  <text x="200" y="320" font-family="Arial" font-size="14" text-anchor="middle">Java 服务</text>
  <text x="200" y="340" font-family="Arial" font-size="14" text-anchor="middle">(使用 Nacos Client)</text>
  
  <!-- Java Http Client -->
  <rect x="120" y="360" width="160" height="30" rx="5" ry="5" fill="#aaccff" stroke="#0066cc" stroke-width="1"/>
  <text x="200" y="380" font-family="Arial" font-size="12" text-anchor="middle">Http Client</text>
  
  <!-- Java Service Metadata -->
  <rect x="120" y="400" width="160" height="30" rx="5" ry="5" fill="#ffffcc" stroke="#cccc00" stroke-width="1"/>
  <text x="200" y="420" font-family="Arial" font-size="12" text-anchor="middle">Metadata 标签</text>
  
  <!-- Python Container Box -->
  <rect x="600" y="250" width="200" height="200" rx="5" ry="5" fill="#eeeeff" stroke="#000000" stroke-width="2"/>
  <text x="700" y="270" font-family="Arial" font-size="16" text-anchor="middle" font-weight="bold">Container 2 (Python/Go)</text>
  
  <!-- Python Service -->
  <rect x="620" y="290" width="160" height="60" rx="5" ry="5" fill="#ffcccc" stroke="#cc0066" stroke-width="2"/>
  <text x="700" y="320" font-family="Arial" font-size="14" text-anchor="middle">Python/Go 服务</text>
  <text x="700" y="340" font-family="Arial" font-size="14" text-anchor="middle">(使用 Istio)</text>
  
  <!-- Python Http Client -->
  <rect x="620" y="360" width="160" height="30" rx="5" ry="5" fill="#ffaaaa" stroke="#cc0066" stroke-width="1"/>
  <text x="700" y="380" font-family="Arial" font-size="12" text-anchor="middle">Http Client</text>
  
  <!-- Python Service Metadata -->
  <rect x="620" y="400" width="160" height="30" rx="5" ry="5" fill="#ffffcc" stroke="#cccc00" stroke-width="1"/>
  <text x="700" y="420" font-family="Arial" font-size="12" text-anchor="middle">Metadata 标签</text>
  
  <!-- Waypoint Proxy Box -->
  <rect x="350" y="300" width="200" height="150" rx="5" ry="5" fill="#f0f0f0" stroke="#000000" stroke-width="2"/>
  <text x="450" y="320" font-family="Arial" font-size="16" text-anchor="middle" font-weight="bold">Istio 数据平面</text>
  
  <!-- HTTP Request Processor -->
  <rect x="370" y="340" width="160" height="40" rx="5" ry="5" fill="#ccddff" stroke="#0066cc" stroke-width="2"/>
  <text x="450" y="365" font-family="Arial" font-size="12" text-anchor="middle">调用代理 (Istio waypoint)</text>
  
  <!-- Circuit Breaker -->
  <rect x="370" y="390" width="160" height="40" rx="5" ry="5" fill="#ccddff" stroke="#0066cc" stroke-width="2"/>
  <text x="450" y="415" font-family="Arial" font-size="12" text-anchor="middle">限流断路代理 (waypoint)</text>
  
  <!-- Note Box for Java -->
  <rect x="80" y="480" width="240" height="90" rx="5" ry="5" fill="#ffffcc" stroke="#cccc00" stroke-width="1"/>
  <text x="100" y="500" font-family="Arial" font-size="12">Java 服务注册发现：</text>
  <text x="100" y="520" font-family="Arial" font-size="12">- 使用 Nacos 进行服务注册与发现</text>
  <text x="100" y="540" font-family="Arial" font-size="12">- 基于元数据+请求头进行服务路由</text>
  <text x="100" y="560" font-family="Arial" font-size="12">- 通过同步组件与 Istio 保持互通</text>
  
  <!-- Note Box for Python/Go -->
  <rect x="580" y="480" width="240" height="90" rx="5" ry="5" fill="#ffffcc" stroke="#cccc00" stroke-width="1"/>
  <text x="600" y="500" font-family="Arial" font-size="12">Python/Go 服务注册发现：</text>
  <text x="600" y="520" font-family="Arial" font-size="12">- 使用 Istio 进行服务注册与发现</text>
  <text x="600" y="540" font-family="Arial" font-size="12">- 基于 K8s ConfigMap 存储元数据</text>
  <text x="600" y="560" font-family="Arial" font-size="12">- 通过 waypoint 实现 L7 能力</text>
  
  <!-- Connection Lines -->
  <!-- Java -> Nacos -->
  <path d="M 250 290 L 460 150" fill="none" stroke="#009900" stroke-width="2"/>
  
  <!-- Python -> Istiod -->
  <path d="M 650 290 L 440 150" fill="none" stroke="#0066cc" stroke-width="2"/>
  
  <!-- Istiod <-> Nacos -->
  <path d="M 440 140 L 460 140" fill="none" stroke="#ff6600" stroke-width="2" stroke-dasharray="5,3"/>
  
  <!-- Java -> Waypoint -->
  <path d="M 280 360 L 370 360" fill="none" stroke="#0066cc" stroke-width="2"/>
  
  <!-- Waypoint -> Python -->
  <path d="M 530 360 L 620 360" fill="none" stroke="#cc0066" stroke-width="2"/>
  
  <!-- Direct Communication (Optional) -->
  <path d="M 280 400 C 350 460, 550 460, 620 400" fill="none" stroke="#888888" stroke-width="1" stroke-dasharray="5,3"/>
  <text x="450" y="470" font-family="Arial" font-size="10" text-anchor="middle" fill="#888888">可选直接调用路径</text>
  
  <!-- Legend -->
  <rect x="350" y="530" width="200" height="60" rx="5" ry="5" fill="#f0f0f0" stroke="#000000" stroke-width="1"/>
  <text x="450" y="545" font-family="Arial" font-size="12" text-anchor="middle" font-weight="bold">图例</text>
  
  <line x1="360" y1="560" x2="380" y2="560" stroke="#0066cc" stroke-width="2"/>
  <text x="430" y="565" font-family="Arial" font-size="10">Istio 流量</text>
  
  <line x1="460" y1="560" x2="480" y2="560" stroke="#009900" stroke-width="2"/>
  <text x="530" y="565" font-family="Arial" font-size="10">Nacos 流量</text>
  
  <line x1="360" y1="580" x2="380" y2="580" stroke="#ff6600" stroke-width="2" stroke-dasharray="5,3"/>
  <text x="440" y="585" font-family="Arial" font-size="10">配置同步</text>
</svg>
